<?xml version="1.0" encoding="UTF-8"?>
<svg xmlns="http://www.w3.org/2000/svg" version="1.1" viewBox="0 0 28.654 16">
  <defs>
    <style>
      .cls-1 {
        fill: none;
      }

      .cls-2 {
        stroke-miterlimit: 3.999;
        stroke-width: 1px;
      }

      .cls-2, .cls-3 {
        stroke: #000;
      }

      .cls-3 {
        stroke-miterlimit: 4;
        stroke-width: 1px;
      }
    </style>
  </defs>
  <!-- Generator: Adobe Illustrator 28.7.1, SVG Export Plug-In . SVG Version: 1.2.0 Build 142)  -->
  <g>
    <g id="_레이어_1" data-name="레이어_1">
      <g id="_그룹_36773" data-name="그룹_36773">
        <rect id="_사각형_37574" data-name="사각형_37574" class="cls-1" x="1.121" y="0" width="26.4" height="16"/>
        <g id="_그룹_36771" data-name="그룹_36771">
          <path id="_패스_351546" data-name="패스_351546" class="cls-2" d="M13.919,13.798l.018-.014c.13-.113.181-.162.233-.211l.378-.306.164-.133.047-.038c.08-.052.172-.116.28-.201s.172-.14.227-.184l.103-.097c.165-.148.277-.259.36-.349l.078-.063c.078-.063.149-.134.216-.202.106-.107.181-.191.242-.262l.023-.018.168-.136.151-.122.315-.281c.089-.06.191-.136.307-.233l.274-.222c.15-.132.233-.214.303-.285l.03-.024c.041-.033.075-.067.109-.101.073-.059.159-.121.263-.213.092-.075.162-.146.221-.204s.145-.111.233-.189l.042-.034c.103-.084.139-.123.176-.157l.253-.205c.172-.152.265-.243.334-.315l.113-.091c.043-.035.091-.08.148-.134.118-.118.206-.211.274-.286l.04-.04c.052-.042.116-.084.181-.135l.054-.044.355-.297.131-.106.273-.221.147-.119c.046-.037.092-.075.179-.16s.143-.134.19-.18c.047-.047.113-.092.187-.152l.096-.085c.064-.052.107-.1.146-.137l.005-.004c.112-.065.221-.136.325-.214.142-.104.211-.162.281-.221s.171-.131.261-.211l.098-.087c.064-.052.182-.154.182-.154l.121-.111c.152-.14.206-.194.26-.248l.12-.097.124-.121.096-.077c.048-.039.102-.089.174-.158.117-.108.162-.149.267-.251.064-.052.121-.107.233-.216s.194-.198.257-.269l.092-.095.094-.076c.051-.042.117-.082.241-.179.099-.08.15-.113.247-.19l.336-.272.034-.028c.129-.112.172-.152.235-.211l.193-.169.104-.094c.103-.095.201-.195.293-.301l.119-.096c.045-.029.096-.063.152-.103.032.004.064.004.096.002-.002.028-.001.057.002.085.003.054.027.106.067.143,0,.038.003.076.008.113-.017.068-.01.14.019.205.015.036.039.068.069.093l-.159.147c-.103.084-.163.145-.248.228l-.229.227c-.08.079-.146.149-.201.211l-.106.086c-.087.07-.145.13-.194.177l-.085.069q-.005.004,0,0c-.078.05-.162.104-.264.187-.085.054-.183.121-.312.22l-.068.055-.124.1c-.059.048-.106.093-.148.134-.059.039-.116.081-.17.126-.068.048-.127.09-.241.179-.1.073-.194.143-.339.265l-.005.004c-.125.108-.245.222-.357.343l-.089.072-.099.088c-.085.076-.152.144-.211.204l-.171.138-.091.083-.12.097-.353.32c-.113.103-.195.187-.261.259l-.085.069-.23.207-.462.408-.103.084-.179.145-.211.189-.315.275c-.123.11-.208.201-.28.272s-.121.113-.168.158l-.111.101c-.051.041-.087.078-.181.166-.115.104-.157.143-.238.219l-.12.097c-.044.044-.134.127-.134.127l-.095.096-.169.144-.16.13-.119.083c-.184.101-.357.219-.518.353l-.103.083c-.109.094-.212.193-.31.299l-.012.01c-.072.064-.14.132-.203.203l-.238.222-.114.101c-.037.026-.072.055-.105.085-.122.08-.24.166-.352.259l-.087.07c-.086.07-.118.104-.15.133l-.103.084-.127.113c-.194.18-.256.242-.319.306l-.078.063-.078.063-.096.084-.132.11-.107.096c-.096.092-.176.167-.239.234l-.574.473c-.078.063-.174.13-.301.243-.153.133-.254.231-.33.312l-.192.177"/>
          <path id="_패스_351547" data-name="패스_351547" class="cls-3" d="M14.721,13.801l-.018-.014c-.126-.116-.177-.166-.229-.215l-.378-.306-.164-.133-.047-.038c-.08-.052-.172-.116-.28-.201s-.173-.14-.227-.184l-.11-.103c-.162-.144-.273-.256-.354-.343l-.078-.063c-.078-.063-.149-.134-.216-.202-.107-.107-.181-.191-.242-.263l-.023-.018-.168-.136-.151-.122-.315-.281c-.089-.06-.191-.136-.307-.233l-.274-.222c-.15-.132-.233-.214-.303-.285l-.031-.025c-.041-.033-.075-.067-.11-.102-.073-.059-.159-.121-.263-.213-.092-.075-.162-.146-.221-.204s-.145-.111-.233-.189l-.042-.034c-.103-.084-.139-.123-.176-.157l-.253-.205c-.172-.153-.265-.243-.335-.315l-.11-.095c-.043-.035-.091-.08-.149-.134-.119-.112-.205-.203-.272-.278l-.04-.04c-.052-.042-.116-.084-.181-.135l-.054-.044-.355-.297-.131-.106-.273-.221-.147-.119c-.046-.037-.092-.075-.179-.16s-.143-.134-.19-.181-.113-.092-.187-.152l-.096-.085c-.064-.052-.107-.1-.146-.138l-.009-.007c-.112-.065-.221-.136-.325-.214-.142-.104-.211-.162-.281-.221s-.171-.131-.261-.211l-.098-.087c-.064-.052-.182-.154-.182-.154l-.121-.111c-.152-.14-.206-.194-.26-.248l-.12-.098-.131-.118-.096-.077c-.048-.039-.102-.089-.174-.158-.117-.108-.162-.149-.267-.251-.065-.052-.121-.107-.233-.216s-.194-.199-.257-.27l-.093-.096-.094-.076c-.051-.042-.117-.082-.241-.179-.099-.08-.151-.113-.248-.19l-.336-.272-.034-.028c-.129-.112-.172-.152-.236-.211l-.193-.17-.104-.094c-.103-.095-.201-.195-.293-.301l-.119-.096c-.045-.029-.096-.063-.152-.103-.032.006-.065.008-.098.007.002.028.001.057-.002.085-.006.049-.03.094-.066.128.001.039,0,.078-.004.116.017.068.01.14-.019.205-.014.038-.039.073-.07.099l.165.145c.103.084.163.145.248.228l.231.227c.08.079.146.149.201.211l.106.086c.087.07.145.13.194.177l.085.069q.005.004,0,0c.072.045.154.102.259.179.085.054.183.121.312.22l.068.055.124.1c.059.048.106.093.149.134.059.039.116.081.17.126.068.048.127.09.241.179.1.073.194.143.339.265l.005.004c.126.109.247.225.36.348l.089.072.096.088c.085.076.152.144.211.205l.171.138.093.084.12.097.354.32c.113.104.194.188.264.256l.085.069.226.214.463.405.1.085.179.145.215.188.315.275c.125.111.209.199.281.271s.121.113.167.159l.109.1c.051.041.087.078.181.166.115.105.159.144.24.22l.12.097c.048.039.137.125.137.125l.093.096.168.145.16.13.117.086c.184.1.358.218.52.351l.103.083c.108.094.211.195.307.3l.014.011c.071.063.137.13.2.201l.243.223.114.1c.037.026.072.055.105.085.121.081.238.169.349.263l.087.07c.086.07.118.104.15.133l.103.089.127.113c.197.172.259.234.326.301l.078.063.078.063.093.082.133.108.106.098c.097.09.176.167.239.234l.574.474c.078.063.174.13.301.244.153.133.254.231.33.312l.106.086"/>
        </g>
      </g>
    </g>
  </g>
</svg>