<?xml version="1.0" encoding="UTF-8"?>
<svg xmlns="http://www.w3.org/2000/svg" version="1.1" viewBox="0 0 98.021 98.021">
  <defs>
    <style>
      .cls-1 {
        fill: #fefef2;
      }
    </style>
  </defs>
  <!-- Generator: Adobe Illustrator 28.6.0, SVG Export Plug-In . SVG Version: 1.2.0 Build 709)  -->
  <g>
    <g id="Layer_1">
      <path class="cls-1" d="M68,8c12.15,0,22,9.85,22,22v38c0,12.15-9.85,22-22,22H30c-12.15,0-22-9.85-22-22V30c0-12.15,9.85-22,22-22h38M68,0H30C13.452.049.049,13.452,0,30v38c.049,16.548,13.452,29.951,30,30h38c16.548-.049,29.951-13.452,30-30V30C97.951,13.452,84.548.049,68,0Z"/>
      <path class="cls-1" d="M75.14,17c-3.165,0-5.73,2.565-5.73,5.73s2.565,5.73,5.73,5.73,5.73-2.565,5.73-5.73-2.565-5.73-5.73-5.73h0Z"/>
      <path class="cls-1" d="M49.27,31.47c9.764-.006,17.684,7.906,17.69,17.67s-7.906,17.684-17.67,17.69c-9.764.006-17.684-7.906-17.69-17.67v-.02c.017-9.752,7.918-17.653,17.67-17.67M49.27,23.47c-14.183.028-25.658,11.547-25.63,25.73.028,14.183,11.547,25.658,25.73,25.63,14.167-.028,25.635-11.523,25.63-25.69-.006-14.183-11.507-25.676-25.69-25.67-.013,0-.027,0-.04,0Z"/>
    </g>
  </g>
</svg>