<?xml version="1.0" encoding="UTF-8"?>
<svg xmlns="http://www.w3.org/2000/svg" xmlns:xlink="http://www.w3.org/1999/xlink" version="1.1" viewBox="0 0 128.482 62.442">
  <defs>
    <style>
      .cls-1 {
        fill: none;
      }

      .cls-2 {
        fill: #fefef2;
      }

      .cls-3 {
        clip-path: url(#clippath);
      }
    </style>
    <clipPath id="clippath">
      <rect class="cls-1" y="0" width="128.482" height="62.442"/>
    </clipPath>
  </defs>
  <!-- Generator: Adobe Illustrator 28.6.0, SVG Export Plug-In . SVG Version: 1.2.0 Build 709)  -->
  <g>
    <g id="_그룹_104" data-name="그룹_104">
      <g class="cls-3">
        <g id="_그룹_71" data-name="그룹_71">
          <path id="_패스_277" data-name="패스_277" class="cls-2" d="M69.555,6.164c.002,3.405-2.757,6.166-6.162,6.168-3.405.002-6.166-2.757-6.168-6.162-.002-3.405,2.757-6.166,6.162-6.168.002,0,.004,0,.006,0,3.402-.001,6.161,2.756,6.162,6.158v.004"/>
          <path id="_패스_278" data-name="패스_278" class="cls-2" d="M123.699,30.093v-6.606h-6.14v18.526h6.141v-6.6h4.779v-5.32h-4.78Z"/>
          <path id="_패스_279" data-name="패스_279" class="cls-2" d="M111.5,44.147c-5.153-.101-9.413,3.992-9.519,9.145.102,5.156,4.363,9.253,9.519,9.152,5.154.098,9.412-3.998,9.514-9.152-.106-5.151-4.363-9.243-9.514-9.145M111.5,56.887c-1.988.035-3.628-1.548-3.663-3.535-.035-1.988,1.548-3.628,3.535-3.663,1.988-.035,3.628,1.548,3.663,3.535,0,.021,0,.042,0,.063.018,1.97-1.565,3.582-3.536,3.6,0,0,0,0,0,0"/>
          <path id="_패스_280" data-name="패스_280" class="cls-2" d="M44.629,42.476h15.775v6.752h6.148v-6.752h15.435v-5.321h-37.358v5.321Z"/>
          <path id="_패스_281" data-name="패스_281" class="cls-2" d="M36.177,48.982c-.003-1.691-1.372-3.06-3.063-3.063h-11.677v-4.835h14.74v-13.602c-.003-1.691-1.372-3.06-3.063-3.063H0v5.321h30.037v6.03H0v5.314h15.289v4.835H0v5.321h30.037v8.822h6.141v-11.08Z"/>
          <path id="_패스_282" data-name="패스_282" class="cls-2" d="M48.785,59.339c-1.691,0-3.062-1.372-3.063-3.063v-7.537h6.141v5.284h29.349v5.321l-32.427-.005Z"/>
          <path id="_패스_283" data-name="패스_283" class="cls-2" d="M88.713,27.482c-.002-1.689,1.366-3.061,3.055-3.063.003,0,.005,0,.008,0h19.193v5.314h-16.115v6.509h16.3v5.307h-22.441v-14.067Z"/>
          <path id="_패스_284" data-name="패스_284" class="cls-2" d="M63.391,16.371l-16.261,14.044,3.841,4.439,12.42-10.725,12.42,10.725,3.842-4.439-16.262-14.044Z"/>
        </g>
      </g>
    </g>
  </g>
</svg>